# xmcd
#
# Track frame offsets: 
#        150
#        11332
#        23152
#        33355
#        45382
#        55210
#        64840
#        72942
#        84045
#        93620
#        105567
#        116790
#        125902
#        136950
#        147380
#        157480
#        166692
#        176500
#        186370
#        195175
#        203370
#        211225
#        221267
#
# Disc length: 3059 seconds
#
# Revision: 2
# Processed by: cddbd v1.5.2PL0 Copyright (c) Steve Scherf et al.
# Submitted via: ExactAudioCopy v0.95b4
#
DISCID=3e0bf117
DTITLE=Spiders - The Imperial Sessions disc 2
DYEAR=1900
DGENRE=
TTITLE0=(True) You Don't Love Me 
TTITLE1=Witchcraft 
TTITLE2=You Played The Part 
TTITLE3=Is It True (A Little Bird Told Me) 
TTITLE4=How I Feel 
TTITLE5=That's The Way To Win My Heart 
TTITLE6=Goodbye 
TTITLE7=I'll Be Free 
TTITLE8=Don't Pity Me 
TTITLE9=Dear Mary 
TTITLE10=A-1 In My Heart 
TTITLE11=Without Love 
TTITLE12=Someday Bye And Bye 
TTITLE13=That's My Desire 
TTITLE14=Better Be On My Way 
TTITLE15=Honey Bee 
TTITLE16=I'm Glad For Your Sake 
TTITLE17=Poor Boy 
TTITLE18=The Bells Are Ringing 
TTITLE19=I Miss You 
TTITLE20=Times 
TTITLE21=You're The One 
TTITLE22=Tennessee Slim 
EXTD=
EXTT0=
EXTT1=
EXTT2=
EXTT3=
EXTT4=
EXTT5=
EXTT6=
EXTT7=
EXTT8=
EXTT9=
EXTT10=
EXTT11=
EXTT12=
EXTT13=
EXTT14=
EXTT15=
EXTT16=
EXTT17=
EXTT18=
EXTT19=
EXTT20=
EXTT21=
EXTT22=
PLAYORDER=
